<svg width="32" height="33" viewBox="0 0 32 33" fill="none" xmlns="http://www.w3.org/2000/svg">
<g clip-path="url(#clip0_3_112)">
<mask id="mask0_3_112" style="mask-type:alpha" maskUnits="userSpaceOnUse" x="0" y="0" width="32" height="33">
<path d="M32 16.5C32 7.66344 24.8366 0.5 16 0.5C7.16344 0.5 0 7.66344 0 16.5C0 25.3366 7.16344 32.5 16 32.5C24.8366 32.5 32 25.3366 32 16.5Z" fill="white"/>
</mask>
<g mask="url(#mask0_3_112)">
<path d="M32 0.5H0V32.5H32V0.5Z" fill="#064061"/>
<path d="M16.1637 5.14145C7.43592 6.52379 1.48128 14.7196 2.86363 23.4474C4.24597 32.1752 12.4418 38.1298 21.1696 36.7475C29.8974 35.3651 35.852 27.1693 34.4696 18.4415C33.0873 9.71375 24.8914 3.75911 16.1637 5.14145Z" fill="#98DAFF"/>
<path d="M7.12732 18.3552C7.14275 19.2391 7.62573 20.0787 8.47 20.6891C9.31428 21.2996 10.4507 21.631 11.6293 21.6105C12.8078 21.5899 13.932 21.219 14.7544 20.5794C15.5769 19.9399 16.0303 19.084 16.0149 18.2001" fill="#064061"/>
<path d="M8.39839 14.7769C8.38982 14.2861 8.08444 13.8934 7.71631 13.8998C7.34818 13.9062 7.05669 14.3093 7.06526 14.8002C7.07382 15.291 7.3792 15.6837 7.74734 15.6773C8.11547 15.6709 8.40696 15.2678 8.39839 14.7769Z" fill="#064061"/>
<path d="M15.5084 14.6528C15.4999 14.162 15.1945 13.7693 14.8264 13.7757C14.4582 13.7821 14.1667 14.1852 14.1753 14.6761C14.1839 15.1669 14.4892 15.5596 14.8574 15.5532C15.2255 15.5468 15.517 15.1436 15.5084 14.6528Z" fill="#064061"/>
</g>
</g>
<defs>
<clipPath id="clip0_3_112">
<rect width="32" height="32" fill="white" transform="translate(0 0.5)"/>
</clipPath>
</defs>
</svg>
