<svg width="32" height="32" viewBox="0 0 32 32" fill="none" xmlns="http://www.w3.org/2000/svg">
<path d="M25.7333 10.56V17.4267C25.7333 21.5333 23.3867 23.2933 19.8667 23.2933H8.14666C7.54666 23.2933 6.97333 23.24 6.43999 23.12C6.10666 23.0667 5.78667 22.9734 5.49334 22.8667C3.49334 22.12 2.28 20.3867 2.28 17.4267V10.56C2.28 6.45331 4.62666 4.69336 8.14666 4.69336H19.8667C22.8533 4.69336 25 5.96002 25.5733 8.85335C25.6667 9.38669 25.7333 9.93331 25.7333 10.56Z" stroke="white" stroke-width="1.5" stroke-miterlimit="10" stroke-linecap="round" stroke-linejoin="round"/>
<path d="M29.7348 14.5601V21.4268C29.7348 25.5335 27.3881 27.2935 23.8681 27.2935H12.1481C11.1615 27.2935 10.2681 27.1602 9.49481 26.8669C7.90815 26.2802 6.82813 25.0669 6.44147 23.1202C6.9748 23.2402 7.54813 23.2935 8.14813 23.2935H19.8681C23.3881 23.2935 25.7348 21.5335 25.7348 17.4268V10.5601C25.7348 9.93347 25.6815 9.37352 25.5748 8.85352C28.1081 9.38685 29.7348 11.1735 29.7348 14.5601Z" stroke="white" stroke-width="1.5" stroke-miterlimit="10" stroke-linecap="round" stroke-linejoin="round"/>
<path d="M13.9979 17.5199C15.942 17.5199 17.5179 15.9439 17.5179 13.9998C17.5179 12.0558 15.942 10.4798 13.9979 10.4798C12.0539 10.4798 10.4779 12.0558 10.4779 13.9998C10.4779 15.9439 12.0539 17.5199 13.9979 17.5199Z" stroke="white" stroke-width="1.5" stroke-miterlimit="10" stroke-linecap="round" stroke-linejoin="round"/>
<path d="M6.37335 11.0667V16.9333" stroke="white" stroke-width="1.5" stroke-miterlimit="10" stroke-linecap="round" stroke-linejoin="round"/>
<path d="M21.629 11.067V16.9337" stroke="white" stroke-width="1.5" stroke-miterlimit="10" stroke-linecap="round" stroke-linejoin="round"/>
</svg>
