<svg width="24" height="24" viewBox="0 0 24 24" fill="none" xmlns="http://www.w3.org/2000/svg">
<path d="M18.67 2H16.77C14.59 2 13.44 3.15 13.44 5.33V7.23C13.44 9.41 14.59 10.56 16.77 10.56H18.67C20.85 10.56 22 9.41 22 7.23V5.33C22 3.15 20.85 2 18.67 2Z" fill="#4EB7F2"/>
<path d="M7.24 13.43H5.34C3.15 13.43 2 14.58 2 16.76V18.66C2 20.85 3.15 22 5.33 22H7.23C9.41 22 10.56 20.85 10.56 18.67V16.77C10.57 14.58 9.42 13.43 7.24 13.43Z" fill="#4EB7F2"/>
<path d="M6.29 10.58C8.6593 10.58 10.58 8.6593 10.58 6.29C10.58 3.9207 8.6593 2 6.29 2C3.9207 2 2 3.9207 2 6.29C2 8.6593 3.9207 10.58 6.29 10.58Z" fill="#4EB7F2"/>
<path d="M17.71 22C20.0793 22 22 20.0793 22 17.71C22 15.3407 20.0793 13.42 17.71 13.42C15.3407 13.42 13.42 15.3407 13.42 17.71C13.42 20.0793 15.3407 22 17.71 22Z" fill="#4EB7F2"/>
</svg>
