<svg width="24" height="24" viewBox="0 0 24 24" fill="none" xmlns="http://www.w3.org/2000/svg">
<path d="M2.57999 19.01L2.55999 19.03C2.28999 18.44 2.11999 17.77 2.04999 17.03C2.11999 17.76 2.30999 18.42 2.57999 19.01Z" fill="#292D32"/>
<path d="M9 10.38C10.3144 10.38 11.38 9.31443 11.38 8C11.38 6.68556 10.3144 5.62 9 5.62C7.68556 5.62 6.62 6.68556 6.62 8C6.62 9.31443 7.68556 10.38 9 10.38Z" fill="#292D32"/>
<path d="M16.19 2H7.81C4.17 2 2 4.17 2 7.81V16.19C2 17.28 2.19 18.23 2.56 19.03C3.42 20.93 5.26 22 7.81 22H16.19C19.83 22 22 19.83 22 16.19V13.9V7.81C22 4.17 19.83 2 16.19 2ZM20.37 12.5C19.59 11.83 18.33 11.83 17.55 12.5L13.39 16.07C12.61 16.74 11.35 16.74 10.57 16.07L10.23 15.79C9.52 15.17 8.39 15.11 7.59 15.65L3.85 18.16C3.63 17.6 3.5 16.95 3.5 16.19V7.81C3.5 4.99 4.99 3.5 7.81 3.5H16.19C19.01 3.5 20.5 4.99 20.5 7.81V12.61L20.37 12.5Z" fill="#292D32"/>
</svg>
